<?xml version="1.0" encoding="UTF-8" standalone="no"?>
<svg width="512px" height="512px" viewBox="0 0 512 512" version="1.1" xmlns="http://www.w3.org/2000/svg" xmlns:xlink="http://www.w3.org/1999/xlink" xmlns:sketch="http://www.bohemiancoding.com/sketch/ns">
    <!-- Generator: Sketch 3.4.2 (15855) - http://www.bohemiancoding.com/sketch -->
    <title>flexible-logo</title>
    <desc>Created with Sketch.</desc>
    <defs></defs>
    <g id="flexible-icons" stroke="none" stroke-width="1" fill="none" fill-rule="evenodd" sketch:type="MSPage">
        <g id="flexible-logo" sketch:type="MSArtboardGroup" fill="#222222">
            <path d="M21,337.387223 C21,370.585643 37.9214351,401.243085 66.7882249,417.745627 L117.667611,447.339726 L117.667611,333.755283 L21,277.476321 L21,337.387223 Z M117.939201,64.6280518 L66.8987022,94.2543728 C38.0319124,110.756915 21,141.414357 21,174.612777 L21,232.199053 L117.667611,288.473412 L117.667611,177.259628 L216.213335,121.003682 L117.939201,64.6280518 Z M159.096587,356.265027 L159.096587,469.849469 L210.509946,499.74738 C239.086733,516.084207 272.883571,516.084207 301.460358,499.74738 L352.431808,469.849469 L352.431808,357.87155 L257.168179,413.340346 L159.096587,356.265027 Z M393.860784,447.339726 L444.74017,417.745627 C473.60696,401.238482 490.528395,370.58104 490.528395,337.387223 L490.528395,279.087448 L393.860784,335.36641 L393.860784,447.339726 Z M354.23627,42.1735468 L301.902267,12.2526197 C273.32548,-4.08420655 238.207518,-4.08420655 209.626128,12.2526197 L157.586731,42.0032276 L255.929913,98.3788576 L354.23627,42.1735468 Z M444.592867,94.2543728 L393.543162,64.8121806 L295.628079,121.045111 L393.860784,177.278041 L393.860784,290.084539 L490.528395,233.81018 L490.528395,174.612777 C490.528395,141.414357 473.459657,110.756915 444.592867,94.2543728 L444.592867,94.2543728 Z M159.096587,200.031755 L159.096587,310.983156 L257.168179,368.067682 L352.431808,312.58968 L352.431808,200.017945 L255.906897,143.674538 L159.096587,200.031755 Z" sketch:type="MSShapeGroup"></path>
        </g>
    </g>
</svg>