<svg version="1.1" class="flexiblegs-logo" xmlns="http://www.w3.org/2000/svg" xmlns:xlink="http://www.w3.org/1999/xlink" x="0px" y="0px" width="102px" height="111.401px" viewBox="0 0 102 111.401" enable-background="new 0 0 102 111.401" xml:space="preserve">
  <path fill="#FFFFFF" d="M30,43.342v24.103l21.305,12.401L72,67.794V43.339l-20.969-12.24L30,43.342z M92.021,20.363l-11.09-6.396 L59.66,26.183L81,38.399v24.506l21-12.225V37.82C102,30.608,98.292,23.948,92.021,20.363z M72.392,9.049l-11.369-6.5 c-6.208-3.549-13.837-3.549-20.046,0L29.672,9.012l21.364,12.247L72.392,9.049z M81,97.067l11.053-6.429 C98.324,87.052,102,80.392,102,73.181V60.516L81,72.742V97.067z M30,77.282v24.675l11.169,6.495c6.208,3.549,13.55,3.549,19.758,0 L72,101.957V77.631l-20.695,12.05L30,77.282z M21.059,13.927L9.971,20.363C3.7,23.948,0,30.608,0,37.82v12.51l21,12.225V38.395 l21.408-12.221L21.059,13.927z M0,73.181c0,7.212,3.676,13.872,9.947,17.457L21,97.067V72.392L0,60.166V73.181z"/>
</svg>
